<mxfile host="app.diagrams.net" agent="Mozilla/5.0 (Windows NT 10.0; Win64; x64) AppleWebKit/537.36 (KHTML, like Gecko) Chrome/135.0.0.0 Safari/537.36" version="26.2.14">
  <diagram name="Page-1" id="U64vK0sbu9LdPo2l9is4">
    <mxGraphModel dx="1426" dy="751" grid="1" gridSize="10" guides="1" tooltips="1" connect="1" arrows="1" fold="1" page="1" pageScale="1" pageWidth="850" pageHeight="1100" math="0" shadow="0">
      <root>
        <mxCell id="0" />
        <mxCell id="1" parent="0" />
        <mxCell id="U7mgpYEmfYuhpjVB4wcq-6" style="rounded=0;orthogonalLoop=1;jettySize=auto;html=1;entryX=0;entryY=0.5;entryDx=0;entryDy=0;" edge="1" parent="1" source="U7mgpYEmfYuhpjVB4wcq-1" target="U7mgpYEmfYuhpjVB4wcq-5">
          <mxGeometry relative="1" as="geometry" />
        </mxCell>
        <mxCell id="U7mgpYEmfYuhpjVB4wcq-14" value="&lt;font style=&quot;font-size: 20px;&quot;&gt;a&lt;/font&gt;" style="edgeLabel;html=1;align=center;verticalAlign=middle;resizable=0;points=[];" vertex="1" connectable="0" parent="U7mgpYEmfYuhpjVB4wcq-6">
          <mxGeometry x="-0.3581" y="-1" relative="1" as="geometry">
            <mxPoint x="82" y="-21" as="offset" />
          </mxGeometry>
        </mxCell>
        <mxCell id="U7mgpYEmfYuhpjVB4wcq-7" style="rounded=0;orthogonalLoop=1;jettySize=auto;html=1;entryX=0.5;entryY=0;entryDx=0;entryDy=0;" edge="1" parent="1" source="U7mgpYEmfYuhpjVB4wcq-1" target="U7mgpYEmfYuhpjVB4wcq-4">
          <mxGeometry relative="1" as="geometry" />
        </mxCell>
        <mxCell id="U7mgpYEmfYuhpjVB4wcq-15" value="&lt;font style=&quot;font-size: 20px;&quot;&gt;d&lt;/font&gt;" style="edgeLabel;html=1;align=center;verticalAlign=middle;resizable=0;points=[];" vertex="1" connectable="0" parent="U7mgpYEmfYuhpjVB4wcq-7">
          <mxGeometry x="-0.3619" y="3" relative="1" as="geometry">
            <mxPoint x="7" y="13" as="offset" />
          </mxGeometry>
        </mxCell>
        <mxCell id="U7mgpYEmfYuhpjVB4wcq-8" style="rounded=0;orthogonalLoop=1;jettySize=auto;html=1;entryX=0;entryY=0;entryDx=0;entryDy=0;elbow=vertical;" edge="1" parent="1" source="U7mgpYEmfYuhpjVB4wcq-1" target="U7mgpYEmfYuhpjVB4wcq-3">
          <mxGeometry relative="1" as="geometry" />
        </mxCell>
        <mxCell id="U7mgpYEmfYuhpjVB4wcq-16" value="&lt;font style=&quot;font-size: 20px;&quot;&gt;b&lt;/font&gt;" style="edgeLabel;html=1;align=center;verticalAlign=middle;resizable=0;points=[];" vertex="1" connectable="0" parent="U7mgpYEmfYuhpjVB4wcq-8">
          <mxGeometry x="-0.1202" y="1" relative="1" as="geometry">
            <mxPoint x="6" y="-13" as="offset" />
          </mxGeometry>
        </mxCell>
        <mxCell id="U7mgpYEmfYuhpjVB4wcq-1" value="&lt;font style=&quot;font-size: 20px;&quot;&gt;0&lt;/font&gt;" style="ellipse;whiteSpace=wrap;html=1;aspect=fixed;strokeWidth=3;" vertex="1" parent="1">
          <mxGeometry x="100" y="100" width="80" height="80" as="geometry" />
        </mxCell>
        <mxCell id="U7mgpYEmfYuhpjVB4wcq-2" value="&lt;font style=&quot;font-size: 20px;&quot;&gt;1&lt;/font&gt;" style="ellipse;whiteSpace=wrap;html=1;aspect=fixed;" vertex="1" parent="1">
          <mxGeometry x="610" y="390" width="80" height="80" as="geometry" />
        </mxCell>
        <mxCell id="U7mgpYEmfYuhpjVB4wcq-9" style="rounded=0;orthogonalLoop=1;jettySize=auto;html=1;entryX=0.5;entryY=0;entryDx=0;entryDy=0;" edge="1" parent="1" source="U7mgpYEmfYuhpjVB4wcq-3" target="U7mgpYEmfYuhpjVB4wcq-2">
          <mxGeometry relative="1" as="geometry" />
        </mxCell>
        <mxCell id="U7mgpYEmfYuhpjVB4wcq-17" value="&lt;font style=&quot;font-size: 20px;&quot;&gt;a&lt;/font&gt;" style="edgeLabel;html=1;align=center;verticalAlign=middle;resizable=0;points=[];" vertex="1" connectable="0" parent="U7mgpYEmfYuhpjVB4wcq-9">
          <mxGeometry x="-0.1143" y="-4" relative="1" as="geometry">
            <mxPoint x="14" as="offset" />
          </mxGeometry>
        </mxCell>
        <mxCell id="U7mgpYEmfYuhpjVB4wcq-12" style="rounded=0;orthogonalLoop=1;jettySize=auto;html=1;entryX=0.5;entryY=1;entryDx=0;entryDy=0;" edge="1" parent="1" source="U7mgpYEmfYuhpjVB4wcq-3" target="U7mgpYEmfYuhpjVB4wcq-5">
          <mxGeometry relative="1" as="geometry" />
        </mxCell>
        <mxCell id="U7mgpYEmfYuhpjVB4wcq-20" value="&lt;font style=&quot;font-size: 20px;&quot;&gt;c&lt;/font&gt;" style="edgeLabel;html=1;align=center;verticalAlign=middle;resizable=0;points=[];" vertex="1" connectable="0" parent="U7mgpYEmfYuhpjVB4wcq-12">
          <mxGeometry x="-0.1" y="1" relative="1" as="geometry">
            <mxPoint x="11" y="-3" as="offset" />
          </mxGeometry>
        </mxCell>
        <mxCell id="U7mgpYEmfYuhpjVB4wcq-3" value="&lt;font style=&quot;font-size: 20px;&quot;&gt;2&lt;/font&gt;" style="ellipse;whiteSpace=wrap;html=1;aspect=fixed;" vertex="1" parent="1">
          <mxGeometry x="610" y="240" width="80" height="80" as="geometry" />
        </mxCell>
        <mxCell id="U7mgpYEmfYuhpjVB4wcq-10" style="rounded=0;orthogonalLoop=1;jettySize=auto;html=1;entryX=0;entryY=1;entryDx=0;entryDy=0;" edge="1" parent="1" source="U7mgpYEmfYuhpjVB4wcq-4" target="U7mgpYEmfYuhpjVB4wcq-3">
          <mxGeometry relative="1" as="geometry" />
        </mxCell>
        <mxCell id="U7mgpYEmfYuhpjVB4wcq-18" value="&lt;font style=&quot;font-size: 20px;&quot;&gt;b&lt;/font&gt;" style="edgeLabel;html=1;align=center;verticalAlign=middle;resizable=0;points=[];" vertex="1" connectable="0" parent="U7mgpYEmfYuhpjVB4wcq-10">
          <mxGeometry x="-0.039" y="-2" relative="1" as="geometry">
            <mxPoint x="37" y="-28" as="offset" />
          </mxGeometry>
        </mxCell>
        <mxCell id="U7mgpYEmfYuhpjVB4wcq-13" style="rounded=0;orthogonalLoop=1;jettySize=auto;html=1;entryX=0;entryY=1;entryDx=0;entryDy=0;exitX=0.9;exitY=0.263;exitDx=0;exitDy=0;exitPerimeter=0;" edge="1" parent="1" source="U7mgpYEmfYuhpjVB4wcq-4" target="U7mgpYEmfYuhpjVB4wcq-5">
          <mxGeometry relative="1" as="geometry" />
        </mxCell>
        <mxCell id="U7mgpYEmfYuhpjVB4wcq-21" value="&lt;font style=&quot;font-size: 20px;&quot;&gt;a&lt;/font&gt;" style="edgeLabel;html=1;align=center;verticalAlign=middle;resizable=0;points=[];" vertex="1" connectable="0" parent="U7mgpYEmfYuhpjVB4wcq-13">
          <mxGeometry x="0.0264" y="2" relative="1" as="geometry">
            <mxPoint x="-12" y="-15" as="offset" />
          </mxGeometry>
        </mxCell>
        <mxCell id="U7mgpYEmfYuhpjVB4wcq-4" value="&lt;font style=&quot;font-size: 20px;&quot;&gt;3&lt;/font&gt;" style="ellipse;whiteSpace=wrap;html=1;aspect=fixed;" vertex="1" parent="1">
          <mxGeometry x="100" y="390" width="80" height="80" as="geometry" />
        </mxCell>
        <mxCell id="U7mgpYEmfYuhpjVB4wcq-5" value="&lt;font style=&quot;font-size: 20px;&quot;&gt;4&lt;/font&gt;" style="ellipse;whiteSpace=wrap;html=1;aspect=fixed;strokeColor=default;dashed=1;" vertex="1" parent="1">
          <mxGeometry x="610" y="100" width="80" height="80" as="geometry" />
        </mxCell>
        <mxCell id="U7mgpYEmfYuhpjVB4wcq-11" style="rounded=0;orthogonalLoop=1;jettySize=auto;html=1;entryX=1;entryY=0.5;entryDx=0;entryDy=0;" edge="1" parent="1" source="U7mgpYEmfYuhpjVB4wcq-2" target="U7mgpYEmfYuhpjVB4wcq-4">
          <mxGeometry relative="1" as="geometry" />
        </mxCell>
        <mxCell id="U7mgpYEmfYuhpjVB4wcq-19" value="&lt;font style=&quot;font-size: 20px;&quot;&gt;e&lt;/font&gt;" style="edgeLabel;html=1;align=center;verticalAlign=middle;resizable=0;points=[];" vertex="1" connectable="0" parent="U7mgpYEmfYuhpjVB4wcq-11">
          <mxGeometry x="-0.3302" y="3" relative="1" as="geometry">
            <mxPoint x="4" y="-23" as="offset" />
          </mxGeometry>
        </mxCell>
      </root>
    </mxGraphModel>
  </diagram>
</mxfile>
